<svg width="22" height="20" viewBox="0 0 22 20" fill="none" xmlns="http://www.w3.org/2000/svg">
<rect width="22" height="20" fill="white"/>
<path fill-rule="evenodd" clip-rule="evenodd" d="M18.68 10.1818C18.68 9.61456 18.6291 9.06911 18.5345 8.54547H11V11.64H15.3055C15.12 12.64 14.5564 13.4873 13.7091 14.0546V16.0618H16.2945C17.8073 14.6691 18.68 12.6182 18.68 10.1818Z" fill="#3395EE"/>
<path fill-rule="evenodd" clip-rule="evenodd" d="M11.0002 17.9999C13.1602 17.9999 14.9711 17.2835 16.2947 16.0617L13.7093 14.0544C12.9929 14.5344 12.0765 14.818 11.0002 14.818C8.91653 14.818 7.15289 13.4108 6.5238 11.5199H3.85107V13.5926C5.16744 16.2071 7.87289 17.9999 11.0002 17.9999Z" fill="#00B150"/>
<path fill-rule="evenodd" clip-rule="evenodd" d="M6.52364 11.52C6.36364 11.04 6.27273 10.5273 6.27273 10C6.27273 9.47277 6.36364 8.96005 6.52364 8.48005V6.40732H3.85091C3.30909 7.48732 3 8.70914 3 10C3 11.291 3.30909 12.5128 3.85091 13.5928L6.52364 11.52Z" fill="#EBC100"/>
<path fill-rule="evenodd" clip-rule="evenodd" d="M11.0002 5.18182C12.1747 5.18182 13.2293 5.58545 14.0583 6.37818L16.3529 4.08364C14.9674 2.79273 13.1565 2 11.0002 2C7.87289 2 5.16744 3.79273 3.85107 6.40727L6.5238 8.48C7.15289 6.58909 8.91653 5.18182 11.0002 5.18182Z" fill="#E4181E"/>
</svg>
